<svg xmlns="http://www.w3.org/2000/svg" viewBox="0 0 214.11 72"><defs><style>.cls-1,.cls-2,.cls-3,.cls-4{fill:#fff;}.cls-1,.cls-2{stroke:#fff;}.cls-1{stroke-miterlimit:10;fill-rule:evenodd;}.cls-2{stroke-linecap:round;stroke-linejoin:round;stroke-width:0.06px;}.cls-3{font-size:32.98px;font-family:BarlowCondensed-Bold, Barlow Condensed;font-weight:700;}.cls-4{font-size:12px;font-family:PalatinoLinotype-Roman, Palatino Linotype;}.cls-5{letter-spacing:-0.02em;}.cls-6{letter-spacing:-0.08em;}</style></defs><g id="Layer_2" data-name="Layer 2"><g id="Layer_1-2" data-name="Layer 1"><path class="cls-1" d="M17.86,27.45l-.21,0a.07.07,0,0,0-.06,0l-.18,0h-.08a1.39,1.39,0,0,0-.19-.06h-.08l-.28-.1h0l-.27-.09a.24.24,0,0,1-.1-.05,1,1,0,0,1-.2-.08.33.33,0,0,1-.12-.05l-.21-.1a.27.27,0,0,1-.11,0l-.26-.14a5.85,5.85,0,0,0,1.85,2.3l.11-.28a0,0,0,0,1,0,0c.05-.12.09-.25.15-.38a.75.75,0,0,0,.07-.18,1,1,0,0,0,0-.1.36.36,0,0,0,0-.1.88.88,0,0,0,.05-.15.43.43,0,0,1,0-.05l.05-.2Zm-.37-9c4.44,1.15,6.44-3.15,6.42-3a4.91,4.91,0,0,1-3.54,3.88c-2.28.64-2.88-.9-2.88-.9Zm3.19,1.67.06,0h0l.09,0h0L21,20h0l.16-.08h0l.36-.17h0l.21-.12h0a.9.9,0,0,0,.22-.14h0a1,1,0,0,0,.16-.12l.05,0,.13-.1.05,0,.11-.1.07,0a.65.65,0,0,1,.12-.11l.05-.06a.53.53,0,0,0,.13-.13l0,0,.17-.18s0,0,.05-.06a1,1,0,0,0,.12-.15l.07-.07.1-.14a.47.47,0,0,1,.06-.09l.11-.15a.22.22,0,0,1,.05-.08l.11-.19a.18.18,0,0,1,.05-.07l.14-.28,0-.05.11-.24a.49.49,0,0,0,0-.11,1.21,1.21,0,0,0,.09-.2.5.5,0,0,0,0-.13,1.8,1.8,0,0,0,.08-.21.5.5,0,0,0,0-.13c0-.08.05-.15.07-.23l0-.12c0-.12.07-.25.1-.38,0,.14,0,.26,0,.38a.22.22,0,0,1,0,.11c0,.09,0,.17,0,.27v.1c0,.12,0,.22,0,.33h0c0,.12,0,.22,0,.33a.28.28,0,0,0,0,.09,2.07,2.07,0,0,0,0,.22.31.31,0,0,1,0,.1c0,.09,0,.18-.05.27s0,0,0,0h0l.19-.06h0l.88-.26h0l.2-.06h.06l.2,0,0,0,.22,0h0a1.5,1.5,0,0,1,.29-.06A10.13,10.13,0,0,0,24.4,13.5s-1.68,3.55-4.57,4.1c-3.53.68-4.14-2.21-4.14-2.21a5.08,5.08,0,0,0,1,3.71c.83.87,2.18,1.21,4,1ZM18.46,34.86h.11l.27,0h.77l.27,0a0,0,0,0,1,0,0,1.41,1.41,0,0,0,.27,0h.06l.18,0s0,0,.06,0l.21-.07h0l.14-.06.07,0,.08,0,.3-.16h0s0,0,0,0a1,1,0,0,1,0-.18s0,0,0-.07,0-.12,0-.17v-.07a.83.83,0,0,1,0-.22c.23.56,2,1.63,3.57,1.94a3.85,3.85,0,0,0,3.61-1.14A4.48,4.48,0,0,0,30,30.83,5.9,5.9,0,0,1,26.1,33.2l-.35,0-.17-.31A7.53,7.53,0,0,0,23.85,31a5.54,5.54,0,0,0-1.67.78,4.19,4.19,0,0,0-.77.63,4.77,4.77,0,0,1,2-.55,6.4,6.4,0,0,1,1.86,2s1.69.31,4.13-2c.09,0-.74,2.75-4.7,3a4.1,4.1,0,0,1-3.53-1.83l-.16.72a3.16,3.16,0,0,1-4.25-.53c1.64.53,2.26.1,2.26.1h-.39a6.77,6.77,0,0,1-2.6-.65,2.74,2.74,0,0,0,2.07,2.1,2.83,2.83,0,0,0,.36.07Zm.59-1.57,0,.06,0,0v0Zm21.33-1.6c.82-2.24.83-7.57.79-8.33a35.37,35.37,0,0,0-2.1-3.92c.52.71,1.09,2.81.46,6.26a16.28,16.28,0,0,1-1.25,3.77,3.25,3.25,0,0,1-2.91-1.9,5.28,5.28,0,0,0,5,4.12Z"/><path class="cls-1" d="M20.93,12.39h0l0,.19v0c.05.19.11.36.17.53h0a.47.47,0,0,0,.06.15h0v0l.25-.25.11-.11a1.62,1.62,0,0,0,.19-.18l.14-.13c.06-.05.1-.11.16-.15s.05,0,.07-.06a5.53,5.53,0,0,1-.4-2.62h0a3.27,3.27,0,0,0-.83,2v0a2.81,2.81,0,0,0,0,.65Zm6.34-1.33c6.36-1.26,8.33,2.1,8.33,2.1h-.1l-.07,0h0a9.89,9.89,0,0,0-2-.22,13.19,13.19,0,0,0-.09,2.61,6.18,6.18,0,0,1,.75.13c.17,0,.32.06.47.09l.55.14a1.92,1.92,0,0,0,.32.09l.59.21c.11,0,.2.09.31.12l.56.25a7.8,7.8,0,0,1,3,2.27c.31.45.8,1.36,1.26,2.22a11.25,11.25,0,0,0,1.06-2.34,13.48,13.48,0,0,0-4.51-4.91h.54a.28.28,0,0,0,.13,0l.08,0,.14,0,.08,0a1,1,0,0,1,.16.06l.06,0,.19.07,0,0,.21.1h0l.23.12h0A8.59,8.59,0,0,1,43.15,18c1.16.84,2.83,1.71,4.2,1a4.07,4.07,0,0,0,2.15-3.79,5.21,5.21,0,0,0-3.66-1.57l-.15.09h0l-.13.05h0a.26.26,0,0,1-.12,0h0a.19.19,0,0,1-.1,0s2-5.18-1.55-7.63C40.66,4,35.63,7.66,35.63,7.66A6.18,6.18,0,0,0,33,2.61,6.59,6.59,0,0,0,27,2a8.73,8.73,0,0,0,.28,9.1Zm3.79,36a1.39,1.39,0,0,1-.62.73.48.48,0,0,1-.42,0,.25.25,0,0,1-.12-.07.59.59,0,0,1-.16-.28,1.42,1.42,0,0,1,.09-.91c.24-.56.69-.89,1-.75,0,0,.05,0,.07,0A1,1,0,0,1,31.06,47Zm-1.16,4.3a1.56,1.56,0,0,1-.08.42,1.22,1.22,0,0,1-.71.83.36.36,0,0,1-.27,0c-.31-.09-.45-.54-.35-1a1.66,1.66,0,0,1,.06-.21,1.6,1.6,0,0,1,.3-.55l.13-.12a.48.48,0,0,1,.77,0,.92.92,0,0,1,.15.66Zm-2.57-4.92a1.37,1.37,0,0,1-.62.72.52.52,0,0,1-.42,0,.57.57,0,0,1-.28-.31,1.49,1.49,0,0,1,.08-1,1.79,1.79,0,0,1,.21-.36,1.53,1.53,0,0,0,.13-.16.83.83,0,0,1,.57-.25.25.25,0,0,1,.13,0c.34.14.44.7.2,1.26Zm-1.81,4.08a1.56,1.56,0,0,1-.08.42,1.2,1.2,0,0,1-.71.82.32.32,0,0,1-.27,0c-.32-.1-.45-.54-.35-1a.9.9,0,0,1,.06-.22,1.49,1.49,0,0,1,.3-.54.79.79,0,0,1,.55-.3l.13,0a.62.62,0,0,1,.22.17,1,1,0,0,1,.15.66Zm12-9.74a.5.5,0,0,1-.13,0h-.72s0,0,0,0l-.15,0h-.05l-.1,0-.06,0-.08,0-.06,0-.07,0s0,0-.06,0l-.07,0-.06,0a.1.1,0,0,1-.05,0l-.06,0s0,0,0,0a.51.51,0,0,0-.16.09,1.62,1.62,0,0,0,.4,1.59,4.55,4.55,0,0,1-1.85,1.7l.41-.07.18,0,.43-.1.18,0,.59-.17h0a3,3,0,0,1-1.77.92,10.62,10.62,0,0,1-1.36.19l-.36,0-.76,0a13.76,13.76,0,0,1-5.41-.78,30.26,30.26,0,0,0-4,10.74l.58.24a.58.58,0,0,1,.51-.25.25.25,0,0,1,.17.06.83.83,0,0,1,.35.58,27.39,27.39,0,0,0,4,1,1.31,1.31,0,0,1,.51-1,.66.66,0,0,1,.27-.06A.68.68,0,0,1,29,56a1.27,1.27,0,0,1,.1.12.81.81,0,0,1,.14.31.59.59,0,0,1,.05.19,2.06,2.06,0,0,1,0,.43v0a17.93,17.93,0,0,0,8.56-.8c-1-7.71-.5-10.09-.17-10.82.06-.18.14-.3.24-.31h0s2.68,6.54,7.41,7.14c2.57.31,5.75-4,6.39-4.92L50,47.28a1,1,0,0,0,.62-1.12h0c-1.08-.29-2.48-1.08-2.69-2.29a5.56,5.56,0,0,1-.06-1.38h0l0,0h0l0,0h0l.05,0h0l0,0h0a.09.09,0,0,0,.06,0h0a.16.16,0,0,0,.06,0l.07-.11,0,0a.71.71,0,0,1,.07-.09l0,0s0-.05.06-.07a.87.87,0,0,1,.14-.12h0a1,1,0,0,1-.06-.26,0,0,0,0,1,0,0,1.37,1.37,0,0,1-.05-.28h-.91l-.19,0h0l-.15,0h0l-.13.06s0,0,0,0a.45.45,0,0,0-.12.06,2.41,2.41,0,0,0-.29,1.51,5.38,5.38,0,0,0,.15.94,4.35,4.35,0,0,0,1.63,2.54l-.19,0s0,0-.06,0h-.17a.23.23,0,0,1-.12,0h-.06l-.13,0h0l-.17-.06,0,0-.13-.07,0,0-.11-.07a.11.11,0,0,0-.05,0l-.1-.09,0,0c-.09-.09-.17-.19-.26-.3s0,0,0,0l-.1-.14a.08.08,0,0,1,0,0l-.11-.15s0,0,0,0a4.37,4.37,0,0,1-.42-.8h0l-.21.21h0c-.23.21-.47.42-.73.62h0l-.26.19h0c-.17.12-.35.22-.51.33h0c-.08.06-.15.09-.23.14h0a1.41,1.41,0,0,1-.24.13h0a1,1,0,0,1-.24.09s0,0,0,0l-.21.07h0l-.2,0h0l-.17,0h-.2l-.14,0h0l-.12-.07a.77.77,0,0,0,.19-.11l0,0,.17-.1a.08.08,0,0,1,0,0l.2-.14,0,0,.24-.19a15.58,15.58,0,0,0-1.68-2.09h0l-.19-.21a0,0,0,0,1,0,0l-.2-.2s0,0,0,0l-.19-.19,0,0-.19-.18,0,0-.18-.16,0,0-.16-.16-.06-.06a1,1,0,0,0-.15-.14l-.06-.06L40,42.45,40,42.38a.8.8,0,0,1-.13-.13.27.27,0,0,1-.08-.07l-.13-.1L39.53,42l-.12-.11-.09-.07-.11-.09a.71.71,0,0,0-.09-.07l-.1-.08-.1-.08a.21.21,0,0,0-.08-.06.28.28,0,0,0-.11-.08.81.81,0,0,0-.08-.06.28.28,0,0,0-.09-.06l-.07-.06-.09-.06-.07,0-.1-.06s0,0-.06,0l-.09,0a.1.1,0,0,0,0,0l-.09,0s0,0,0,0l-.12,0-.2-.06ZM20.87,54.46c.07-.33.14-.65.22-1l-.09,0h0l-.2.07h0l-.21.07h0l-.23.07h0a2,2,0,0,1-.23.06h0a.59.59,0,0,0,0,.13,5.67,5.67,0,0,0,.79.53Zm-5.74,1.92h0a6.29,6.29,0,0,0,3.79-1.88h0c0-.16.06-.33.08-.49h0l-.58.07h0s0,.08-.05.13a.35.35,0,0,0,0,.06l0,.08,0,.06,0,.09s0,0,0,.06l-.06.09s0,0,0,.05a1,1,0,0,0-.08.14l0,0A.71.71,0,0,0,18,55l0,.05a.23.23,0,0,0-.09.08l0,0-.08.08,0,0-.14.09h0l-.13.07a.09.09,0,0,0-.05,0l-.12,0-.07,0-.11,0h-.71l-.16-.05h0L16,55.41l-.06,0-.08,0-.06,0a.35.35,0,0,0-.12-.07h0a.59.59,0,0,1-.08.11s0,0,0,0l-.08.09,0,0-.08.08-.07.06s-.06,0-.08.06l-.09.06-.09,0-.1,0-.09,0-.14,0-.07,0-.23,0H14a.61.61,0,0,0-.13,0H13.8l-.16,0a.07.07,0,0,0-.06,0l-.09,0-.07,0-.07,0-.18-.11h0a1.93,1.93,0,0,1-.24.29h0A.24.24,0,0,0,13,56l.05,0,.09,0,.05,0,.1,0,.05,0,.14.05.08,0,.07,0a.17.17,0,0,1,.1,0h.07a2.32,2.32,0,0,0,.38.07h.22a4,4,0,0,0,.69,0Zm4.93-10.11c2.25-3.05,3.87-2.65,3.87-2.65h0a0,0,0,0,1,0,0s0,0,0,0v0h0l0,0h0l-.05,0h0a.43.43,0,0,0,0,.07h0a.18.18,0,0,0-.06.09h0a.31.31,0,0,0-.07.09h0s-.05.09-.07.12h0a23.81,23.81,0,0,0-2.68,6.21h0l.15,0a0,0,0,0,1,0,0l.14,0h0l.12.06h0a.3.3,0,0,1,.11.06l0,0a.6.6,0,0,1,.11.06l.06,0,.09.06,0,0a0,0,0,0,1,0,0,25.86,25.86,0,0,1,3.66-7.23,8.71,8.71,0,0,1-2-1.75,7.72,7.72,0,0,0-3.15,1.73h0c-.24.22-.46.43-.66.65h0l-.13.14a.05.05,0,0,0,0,0,.81.81,0,0,0-.12.14l0,0c-.11.13-.2.25-.28.36a6.19,6.19,0,0,1,.95,1.33Z"/><path class="cls-1" d="M23.2,25.58a7.23,7.23,0,0,0-1,.89c-.11.1-.2.21-.31.33s-.38.45-.56.69a7.15,7.15,0,0,0-.49.73A7.92,7.92,0,0,0,20,29.79c-.06.14-.09.27-.14.41v0c-.1.33-.19.67-.29,1,0,0,.61-.35,1.11-.59a8.56,8.56,0,0,1,2.48-5Zm8.93-.41a.65.65,0,0,0-.31,0,.73.73,0,0,0-.47.47,1.12,1.12,0,0,0,0,.55l-.19,0c-.6,0-1.07-.77-1.1-1.72a1.48,1.48,0,0,0,.46-.35,1.24,1.24,0,0,0,.25-1.38.7.7,0,0,1,.39-.11c.61,0,1.11.79,1.11,1.77a2.64,2.64,0,0,1-.12.77Zm4.08.89s.56-.75.35-4c-4-2.82-11-.49-12.65.14a9.59,9.59,0,0,1-.71,3.35c-.89,3.2-.69,4.5-.52,5l0,0,0,0,.18-.13.08-.05c.05,0,.11-.07.15-.11a.16.16,0,0,0,.08,0l.17-.09.07,0a.91.91,0,0,1,.22-.11l.27-.12.23.18a9,9,0,0,1,2.08,2.1c1.71.24,4.43-3.39,4.43-3.39a7.34,7.34,0,0,1,.16,1c.39,1.58,1.07,5.76-1.85,7.63a5.28,5.28,0,0,1-3.31.87h-.25a4.52,4.52,0,0,1-1.6-.32,3.88,3.88,0,0,1-.36-.15l-.05,0a5.73,5.73,0,0,0,2.45,3.43h0l.59.17.13,0,.49.12.19,0,.47.09.2,0,.69.11.42,0h.14a2.58,2.58,0,0,0,.29,0h1c.13,0,.25,0,.36,0H31l.27,0h.12l.26-.05h.1l.36-.07h0c.11,0,.22,0,.33-.09l.09,0,.25-.07.09,0,.25-.09.08,0,.31-.12h0a1.6,1.6,0,0,0,.3-.13l.08,0,.22-.11.07,0,.23-.12a.1.1,0,0,0,0,0,2,2,0,0,0,.28-.16h0c.13-.08.29-.2.49-.32h0c.09-.07.19-.13.27-.2h0a7.88,7.88,0,0,0,.75-.64h0A12.39,12.39,0,0,0,39.09,35h0l.14-.37h0l0-.1h0a.53.53,0,0,0,0-.15h0a.43.43,0,0,1,0-.05h0a0,0,0,0,0,0,0l.22-.75.61.49a2.91,2.91,0,0,0,2.13.61c1-.31,4.29-3.34,4.73-4.85.39-1.32-.78-4.12-1.26-4.66l-.12,0h-.06l-.1,0-.07,0-.12.05-.08,0-.13.05-.1.05-.13.05a.27.27,0,0,1-.12.06l-.14.07a.47.47,0,0,1-.12.07.52.52,0,0,1-.15.07.47.47,0,0,1-.12.07s-.1.06-.15.1l-.13.07-.15.1-.13.08-.15.11-.13.08-.15.12a1,1,0,0,0-.13.09l-.11.09a5,5,0,0,0,.14,1.66,9.28,9.28,0,0,1,1-.67A4.12,4.12,0,0,1,45.42,27h0a.25.25,0,0,1,.25.11,2.77,2.77,0,0,1,.29.75,6.31,6.31,0,0,1,.15.73,12.2,12.2,0,0,1,.15,1.47,8.35,8.35,0,0,1-3.92,3.53c-.1-.64-.81-.91-1.24-1l0,.09h-.59C34.48,33,34.19,26,34.19,26a6.89,6.89,0,0,0,2,.06ZM18.44,29c0,.07-.05.13-.07.2l0,.1a1.21,1.21,0,0,0,0,.18.49.49,0,0,0,0,.11,1.27,1.27,0,0,1-.06.18.36.36,0,0,1,0,.11,1.05,1.05,0,0,0-.05.19.36.36,0,0,0,0,.1c0,.07,0,.14-.05.19a.36.36,0,0,0,0,.1,1.6,1.6,0,0,0-.05.21s0,0,0,.07a2.27,2.27,0,0,1-.06.25v0a2.17,2.17,0,0,1,0,.25v0l0,.21s0,.06,0,.08,0,.09,0,.13a.18.18,0,0,1,0,.1s0,.07,0,.1,0,.07,0,.1a.15.15,0,0,1,0,.07.41.41,0,0,1,0,.11v0s0,.08,0,.11h0s.61-3.23,1.7-4.43a26,26,0,0,1,1.17-6.42,11.81,11.81,0,0,0-1.44,4.67,10.79,10.79,0,0,1-.57,2.5c0,.08-.07.17-.11.27l0,.08Zm30.37,7.6a.45.45,0,0,1,0,.12v0h0s3.91-2.09,5.09-1.84a3.18,3.18,0,0,1-.18,1.89,22.5,22.5,0,0,0-4.49,1.58l0,0v0s0,0,0,0v0s0,0,0,0,0,0,0,0a.43.43,0,0,1,0,0v0s0,0,0,.06a22.28,22.28,0,0,1,4.66-1.3,2.2,2.2,0,0,1,.1,1.89,14.22,14.22,0,0,0-4.38,1.57s0,.05,0,.08h0a.31.31,0,0,0,0,.1v0a1.62,1.62,0,0,0,0,.21A10.35,10.35,0,0,1,53.91,40a1.35,1.35,0,0,1-.18,1.44,8.92,8.92,0,0,0-3.83,1.67,1.1,1.1,0,0,0,0,.18c.64-.24,3.28-1.23,4-1.12l.18,0a7.41,7.41,0,0,0,2,.24,1.76,1.76,0,0,0,.09-.2,7.83,7.83,0,0,0,0-3.47c0-.2-.06-.43-.1-.69A12.14,12.14,0,0,0,55,33.91l0,0a13.86,13.86,0,0,1-.67-4c-.06-.65-.13-1.44-.19-1.75a3.27,3.27,0,0,0-1.78.49.78.78,0,0,0-.19.27s1.37-.56,1.51-.39a10.2,10.2,0,0,1,0,3.4,1.93,1.93,0,0,1-.7.41,8.44,8.44,0,0,1,.91,1.94h0l0,0a0,0,0,0,0,0,0v.07a4.06,4.06,0,0,0-1.49.15,30.92,30.92,0,0,0-3.58,1.71.22.22,0,0,0,0,.08s0,0,0,0v.25ZM29.45,44.17l.05,0,.16,0h.63l.16,0h.08l.17,0,.07,0,.22-.07h0l.23-.08.07,0,.15-.07.07,0a.65.65,0,0,0,.17-.08l.06,0L32,43.6h0l.21-.14.07,0,.14-.1a.2.2,0,0,1,.07-.06l.14-.11.06,0a1.3,1.3,0,0,1,.18-.15h0l.19-.17a.1.1,0,0,1,.05,0l.13-.13s0,0,.05-.06l.12-.12,0,0,.16-.18h0a8.93,8.93,0,0,1-1.52.43.9.9,0,0,1-.16,0l-.27,0-.25,0-.24,0-.33,0H29.47a5,5,0,0,0,0,1.34Z"/><path class="cls-1" d="M18,53.06c2.59-.24,3.3-.78,3.33-.94a.46.46,0,0,0,0-.4.41.41,0,0,0-.1-.09s0,0,0,0l-.1-.06h0l-.14-.06-.06,0-.08,0s-.05,0-.07,0h-.05l-.2,0c0,.23,0,.41,0,.52l.31,0v.06a1.5,1.5,0,0,1-.4.19,14.19,14.19,0,0,1-2.19.44c-.54.07-1.09.11-1.56.14-.78.07-1.93,0-2.7,0-.39,0-.77,0-1.16-.06l-.57,0-.59,0-1.14-.16c-.38-.06-.76-.1-1.14-.17L8.49,52a17.45,17.45,0,0,1-1.94-.42,17.41,17.41,0,0,1-2.83-1,2.34,2.34,0,0,1-1-.63l0-.06.55.2h0l0-.11h0a4.08,4.08,0,0,1,.2-.59H3s0,0,0,0l-.18,0h0l-.19,0h0a.49.49,0,0,0-.17.06h0a.4.4,0,0,0-.16.08h0L2,49.83H2L1.86,50l0,0-.12.16c.07.2.78.82,3.35,1.58A38.73,38.73,0,0,0,11.38,53a33,33,0,0,0,6.58.06Z"/><path class="cls-1" d="M5.91,47.3a.38.38,0,0,1-.08.11l-.13.2a1,1,0,0,0-.08.11c0,.06-.08.12-.11.19a.47.47,0,0,0-.07.12l-.11.18-.07.11c0,.07-.07.13-.09.19a.27.27,0,0,0-.06.1c0,.06-.06.12-.1.18l0,.1a1.18,1.18,0,0,0-.08.16l0,.11a1.07,1.07,0,0,1-.07.15s0,.07,0,.11a.53.53,0,0,1-.06.14l0,.09a1.12,1.12,0,0,0,0,.13l0,.08s0,.08,0,.13,0,0,0,.07l0,.1,0,.06,0,.11c0,.05,0,.08,0,.12v0h0l.7.2h0l.12,0A8.31,8.31,0,0,1,12,44.6c-2.87,1.81-3.66,5.59-3.85,6.78,1.18.22,2.36.4,3.55.51l.56.07.58,0c.37,0,.76.07,1.13.08.76,0,1.52.07,2.28.05h.23a21.61,21.61,0,0,0-1.45-7c3.32,1.84,3.59,6,3.61,6.93l.77-.06h0v-.22s0-.07,0-.11v-.08s0-.08,0-.12a.25.25,0,0,0,0-.09.61.61,0,0,0,0-.14.31.31,0,0,0,0-.1.39.39,0,0,0,0-.15s0-.07,0-.1,0-.12,0-.18a.34.34,0,0,1,0-.1c0-.06,0-.13,0-.19s0-.07,0-.1a2.23,2.23,0,0,0,0-.23s0-.06,0-.08c-.05-.21-.09-.43-.16-.65,0,0,0,0,0-.06s-.06-.19-.09-.27l0-.11c0-.08-.06-.16-.08-.23s0-.08-.05-.13-.06-.15-.08-.22l-.06-.13a1.45,1.45,0,0,1-.09-.22.54.54,0,0,1-.07-.13l-.11-.21-.07-.14a2.25,2.25,0,0,0-.12-.21.46.46,0,0,0-.08-.13l-.14-.22-.07-.11-.17-.24a.5.5,0,0,1-.07-.08,5.41,5.41,0,0,0-.56-.62s-.05-.06-.09-.08l-.22-.21-.13-.1-.22-.17-.14-.1L16,45.08,15.85,45l-.25-.13-.17-.09-.25-.12-.2-.08a1.69,1.69,0,0,0-.27-.1l-.2-.07-.3-.08L14,44.26l-.35-.07-.19,0a3.42,3.42,0,0,0-.57-.07c-.2,0-.4,0-.6,0h-.56l-.21,0-.32,0-.23,0-.29,0-.21.05-.28,0a.83.83,0,0,1-.21.06l-.26.08-.2.07-.24.1-.19.08-.24.11-.18.08L8.45,45a.83.83,0,0,0-.16.09l-.21.14-.16.09-.21.17-.14.09-.21.18-.11.09L7,46s-.06.06-.1.08l-.27.27s0,0,0,0-.18.2-.27.3,0,0,0,0L6.14,47a.24.24,0,0,0-.06.08,1.84,1.84,0,0,0-.17.22Z"/><path class="cls-1" d="M23.2,25.58a8.56,8.56,0,0,0-2.48,5c-.5.24-1.11.59-1.11.59h0a1.45,1.45,0,0,0,.19.23,2.42,2.42,0,0,0,.4.38,2.59,2.59,0,0,0,.52.34,1.32,1.32,0,0,0,.2.12,14.59,14.59,0,0,1,1.76-1.71h0c-.17-.49-.37-1.79.52-5Zm-1.34-2.41h.07a.38.38,0,0,1,.18,0,.61.61,0,0,1,.29.2l.07.08a1.25,1.25,0,0,1,.2.4,1.79,1.79,0,0,1,.1.64,2.08,2.08,0,0,1-.08.58.39.39,0,0,0-.24,0,.53.53,0,0,0-.35.35.45.45,0,0,0,0,.2v.11s0,.07,0,.1h-.14c-.3,0-.57-.28-.72-.69a2.66,2.66,0,0,1-.11-.61,1.14,1.14,0,0,0,.35-.26l.09-.12a.83.83,0,0,0,.07-.13.9.9,0,0,0,0-.8.85.85,0,0,1,.22-.09ZM29,19.89a3.5,3.5,0,0,1,.14-.49,2.94,2.94,0,0,1,.53-.86.79.79,0,0,1,.17-.2,3,3,0,0,1,.63-.48,2.61,2.61,0,0,1,1.07-.36l.3-.05.14.06a2.6,2.6,0,0,1,.47.24l.14.1a2.48,2.48,0,0,1,.48.49c0,.08.11.17.17.28a1.6,1.6,0,0,1,.13.3,1.21,1.21,0,0,1,.07.33,1.26,1.26,0,0,1,0,.34l-.09.06a3.61,3.61,0,0,0-.74-.72,2.89,2.89,0,0,0-.44-.27,2.85,2.85,0,0,0-.46-.17,3.12,3.12,0,0,0-.77.29,5,5,0,0,0-.71.46,5.76,5.76,0,0,0-.62.59,5,5,0,0,0-.56.66L29,20.43a3.21,3.21,0,0,1,0-.54Zm-9.57,8c-1.09,1.2-1.7,4.43-1.7,4.43h0a1.17,1.17,0,0,0,.6-.1,2.31,2.31,0,0,1,.37-.51.41.41,0,0,0-.1-.09l-.15-.19.06-.27a5.46,5.46,0,0,1,.28-.92l.21-.44c.07-.15.14-.29.22-.43A9.34,9.34,0,0,1,20,28.2a3.65,3.65,0,0,1,.29-.37,7.3,7.3,0,0,1,1-1l.35-.31a9.89,9.89,0,0,1,1.16-.79c.13-.07.27-.15.41-.21l.05.09a9.59,9.59,0,0,0,.71-3.35c1.67-.63,8.62-3,12.65-.14.21,3.22-.35,4-.35,4a6.89,6.89,0,0,1-2-.06,6.47,6.47,0,0,0,2.76.84c1.6-2.5.53-6.24.41-6.67-2.47-4.45-7.47-2.44-7.68-2.35l-.11,0h-.11A16.14,16.14,0,0,0,23.93,19h0A4.45,4.45,0,0,1,23,20l.07,0a2.76,2.76,0,0,1,.65.93,2.26,2.26,0,0,0-.94-.37,1.18,1.18,0,0,0-.46,0,1.38,1.38,0,0,0-.4.1h0a5.21,5.21,0,0,1-1,.4h0a3.17,3.17,0,0,0-.28.36s0,0,0,0a26,26,0,0,0-1.17,6.42Zm4,9.78h0a6.93,6.93,0,0,1-1-.57l.05-.07c.23.09.48.17.72.24a4.89,4.89,0,0,0,.74.16,6.43,6.43,0,0,0,.72.09c.13,0,.25,0,.37,0l.35,0a2.09,2.09,0,0,0,.34-.08,1.75,1.75,0,0,0,.32-.12l.59-.26a6.08,6.08,0,0,0,.6-.34c.2-.13.41-.27.64-.44l.08,0a1.6,1.6,0,0,1-.05.21.66.66,0,0,1-.06.2,1.71,1.71,0,0,1-.17.39,2.38,2.38,0,0,1-.59.64,1.18,1.18,0,0,0-.18.13,2.9,2.9,0,0,1-.62.23,4.34,4.34,0,0,1-.61.06A5.28,5.28,0,0,0,29,37.32c2.92-1.87,2.24-6.05,1.85-7.63a6.56,6.56,0,0,1-1.61,5.46,2.39,2.39,0,0,1-.23.22,5.21,5.21,0,0,1-2.36,1.22,4.62,4.62,0,0,1-1.05.13,5,5,0,0,1-1-.11,5.61,5.61,0,0,1-2.75-1.35,5.08,5.08,0,0,1-2.65.72l-.35,0a11.42,11.42,0,0,0,7.05,5.17h0a5.73,5.73,0,0,1-2.45-3.43Zm6,5.13-.9-.08c-.57-.07-1.12-.17-1.65-.28a4.66,4.66,0,0,0,2.53,1.7,5,5,0,0,1,0-1.34Zm12.89-9.2a8.35,8.35,0,0,0,3.92-3.53l-.1,0c-.11-.48-.22-1-.36-1.42a4.6,4.6,0,0,0-.24-.68,4.09,4.09,0,0,0-.2-.42,3.63,3.63,0,0,0-.92.58,7.76,7.76,0,0,0-1,.86c-.24.23-.48.49-.71.76a2,2,0,0,1,.48,0,.82.82,0,0,1,.37.13.75.75,0,0,1,.12.07s.07.08.09.12a.4.4,0,0,1,.08.16,1.28,1.28,0,0,1,.11.59,2.83,2.83,0,0,1-.19,1h-.1a6.59,6.59,0,0,0-.26-.91,1.33,1.33,0,0,0-.18-.34l0,0s0,0,0,0,0,0,0,0,0,0-.08,0a5.22,5.22,0,0,0-.79.21c-.25.1-.52.19-.78.3a7.78,7.78,0,0,1-.41,1.26l-.09.2c.43.09,1.14.36,1.24,1Zm.62-7a5.46,5.46,0,0,0-.84.82c0,.62-.11,1.25-.19,1.86.33-.29.66-.6,1-.88l.17-.14A5,5,0,0,1,43,26.64Zm-.47-1-.28-.07c0,.09,0,.2,0,.3a2.26,2.26,0,0,1,.29-.23ZM53.67,31.9a10.2,10.2,0,0,0,0-3.4c-.14-.17-1.49.38-1.51.39a7.69,7.69,0,0,0-.58,3.62c.14.37.33.86.47,1.2a1.56,1.56,0,0,1,1.83.54A8.44,8.44,0,0,0,53,32.31a1.93,1.93,0,0,0,.7-.41Zm.24,3c-1.18-.25-5.09,1.84-5.09,1.84h0c0,.21.06.45.09.63,1.1-.43,4.51-1.19,4.82-.58a3.18,3.18,0,0,0,.18-1.89Zm-.1,2.52a22.28,22.28,0,0,0-4.66,1.3,2.92,2.92,0,0,0,.1,1.14c1-.46,3.41-1.2,4.66-.55a2.2,2.2,0,0,0-.1-1.89Zm.1,2.59a10.35,10.35,0,0,0-4.39,1.29h0a3.93,3.93,0,0,0,.15.84c1.23-.62,3.55-1.25,4.06-.69A1.35,1.35,0,0,0,53.91,40Zm.18,2.21-.18,0c-.75-.11-3.39.88-4,1.12a2.76,2.76,0,0,0,.32,1.21c.71,0,3.3-.46,4.27-1.33a2.4,2.4,0,0,1-1.14,1.24,1.16,1.16,0,0,0,.06.57,2.93,2.93,0,0,0,.48-.11,10.84,10.84,0,0,0,2.24-2.42,7.41,7.41,0,0,1-2-.24Zm-37.93,12a.66.66,0,0,0,.6.28.59.59,0,0,0,.49-.33c-.36,0-.73,0-1.09,0Zm-4.67,1.23a1,1,0,0,0,.79-.36,1.26,1.26,0,0,0,.14-.85h0s0-.07,0-.09c-.46,0-.84-.07-1.13-.11s-.92-.1-1.43-.18c.21.7.67,1.67,1.65,1.6ZM15,54.23c-.53,0-1.05,0-1.52,0a.81.81,0,0,0,.87.77c.41,0,.58-.41.65-.74Z"/><path class="cls-1" d="M50,47.28l1.66.06c-.64.92-3.82,5.23-6.39,4.92-4.73-.6-7.41-7.14-7.41-7.14a22.53,22.53,0,0,0,1,4.4c.4.63,3.05,4.64,6.35,5.74,2.68-1.2,6.35-5.49,7.88-7.4-.67-.06-1.19-.29-1.31-.7a9.59,9.59,0,0,0,2-.18,0,0,0,0,1,0,0h0c.7-.15,1.28-.38,1.43-.72a2.66,2.66,0,0,0,.19-1.38,6.17,6.17,0,0,1-1.18,1,13.87,13.87,0,0,1-2.77.42h-.09a3.62,3.62,0,0,1-.79-.11h0A1,1,0,0,1,50,47.28ZM20.94,57.34a36.85,36.85,0,0,1,.77-4.18,3.25,3.25,0,0,1-.62.33c-.08.32-.15.64-.22,1a5.67,5.67,0,0,1-.79-.53h0c-.16.9-.28,1.85-.38,2.87a11.75,11.75,0,0,0,1.24.54Zm16.88-1.09a17.93,17.93,0,0,1-8.56.8c-.08.57-.42,1-.78,1a.51.51,0,0,1-.35-.23.54.54,0,0,1-.09-.15,1,1,0,0,1-.1-.35,2,2,0,0,1,0-.43h0a27.39,27.39,0,0,1-4-1h0a1.23,1.23,0,0,1,0,.51c-.07.6-.42,1.06-.78,1s-.41-.23-.5-.54a1.29,1.29,0,0,1,0-.19,2,2,0,0,1,0-.43,1.71,1.71,0,0,1,.19-.59,1.29,1.29,0,0,1,.09-.16h0l-.58-.24c-.25,1.37-.36,2.43-.41,3,10.05,3.8,17.39.1,19.14-.94A30.45,30.45,0,0,1,38,49.35c-.11-.45-.19-.86-.25-1.24s-.08-.5-.1-.74,0-.44-.06-.64a3.41,3.41,0,0,1,0-.55,3,3,0,0,1,.08-.75c-.33.73-.78,3.11.17,10.82ZM36,42.77a1.62,1.62,0,0,1-.4-1.59h0l0,0a7.86,7.86,0,0,1-4.41,3.54,16.41,16.41,0,0,0,3-.27h0A4.55,4.55,0,0,0,36,42.77Zm-10.49.84a25.86,25.86,0,0,0-3.66,7.23,1.36,1.36,0,0,1,.24.24c0,.05.09.14.14.22A27.27,27.27,0,0,1,25.64,44l.27-.39.42.21a7.41,7.41,0,0,0,1.41.47,7.35,7.35,0,0,1-2.39-2.24c-.37-.11-.72-.24-1.06-.37-.25.05-.52.1-.77.17h0a8.71,8.71,0,0,0,2,1.75Zm-5.45,2.66a6.19,6.19,0,0,0-.95-1.33h0a8.61,8.61,0,0,0-.66.93,9.41,9.41,0,0,1,1.68,3.66c1.43-4.1,3.36-6,3.8-5.91,0,0-1.62-.4-3.87,2.65ZM33.42,12.89h0a11.11,11.11,0,0,0-5.34,1.28,26,26,0,0,1,1.73,2.5,9.51,9.51,0,0,1,2.45-.4l-.76-.82a9.34,9.34,0,0,1,1.83.05,13.19,13.19,0,0,1,.09-2.61Zm-11.3-.51h0a8.13,8.13,0,0,1,1.8-1.23l.15-.07.15,0a6.21,6.21,0,0,1,3.16,2.23c3.33-1.93,7.57-1.08,8.22-.18,0,0-2-3.36-8.33-2.1A8.73,8.73,0,0,1,27,2a4.52,4.52,0,0,0-.56.18c-5.37,2-4,8.67-4,8.74-.26-.08-.53-.5-.73-1.12h0a5.53,5.53,0,0,0,.4,2.62ZM43.77,22.86a2.78,2.78,0,0,0-1,1.74,1.71,1.71,0,0,0,1.07-.15,2,2,0,0,0,.8-1.08,7.58,7.58,0,0,1-.91-.51ZM47.35,19c-1.37.69-3-.18-4.2-1a10.18,10.18,0,0,1,1.1,4,5,5,0,0,0,2.93,1,3.22,3.22,0,0,0,2.37-1.31,5.08,5.08,0,0,0,.64-5.39,4.25,4.25,0,0,0-.69-1A4.07,4.07,0,0,1,47.35,19ZM42.17,23a1.23,1.23,0,0,1,0,.13,4.6,4.6,0,0,1,1-1.19,9.23,9.23,0,0,0-1-3.28A11.25,11.25,0,0,1,41.18,21c.51,1,1,1.94,1,2ZM43.79,6.1c3.56,2.45,1.55,7.63,1.55,7.63.14-.22,3.45-5.5-.83-8.95-3.61-2.89-8.12.92-8.36,1.13a2.33,2.33,0,0,1-.52,1.75s5-3.71,8.16-1.56Z"/><path class="cls-1" d="M12,44.6a8.31,8.31,0,0,0-6.77,6.11h0c.65.18,1.31.34,2,.48l.95.19c.19-1.19,1-5,3.85-6.78Zm3,.52a21.61,21.61,0,0,1,1.45,7h0c.73,0,1.44,0,2.16-.08h0c0-.92-.29-5.09-3.61-6.93Z"/><path class="cls-1" d="M15.5,26.62l-.05,0a4.23,4.23,0,0,0,.66,2.12,3.87,3.87,0,0,0,1,1.12c.07-.3.16-.6.25-.91a5.85,5.85,0,0,1-1.85-2.3Zm4.33-9c2.89-.55,4.57-4.1,4.57-4.1a10.13,10.13,0,0,1,2.24,3.59,12,12,0,0,1,2-.27c-1-1.57-3-4.24-4.44-4.64A9.44,9.44,0,0,0,21.92,14a5.77,5.77,0,0,1-2.79,1.88,6.9,6.9,0,0,1-3.44-.52s.61,2.89,4.14,2.21Zm4.08-2.17c0-.17-2,4.13-6.42,3,0,0,.6,1.54,2.88.9a4.91,4.91,0,0,0,3.54-3.88Zm14.37,14a16.28,16.28,0,0,0,1.25-3.77c.63-3.45.06-5.55-.46-6.26a7.05,7.05,0,0,0-1.92-1.32A7.32,7.32,0,0,1,38.3,19.7l0,.1c.07.19,1.53,4.75-.64,7.83l-.12.15-.19,0a3,3,0,0,1-2-.26,3.25,3.25,0,0,0,2.91,1.9ZM16.76,33.25a3.16,3.16,0,0,0,4.25.53l.16-.72a4.1,4.1,0,0,0,3.53,1.83c4-.24,4.79-3,4.7-3-2.44,2.28-4.13,2-4.13,2a6.4,6.4,0,0,0-1.86-2,4.77,4.77,0,0,0-2,.55h0l-.1.1a1.93,1.93,0,0,1-.72.1,2.2,2.2,0,0,1-.37,0l-.19,0-.18-.06a2.15,2.15,0,0,1-.32-.13,1.63,1.63,0,0,0-.38.6l-.1.31v0l0,0s-.62.43-2.26-.1Z"/><path class="cls-1" d="M21.61,24.06a.83.83,0,0,1-.07.13l-.09.12a1.14,1.14,0,0,1-.35.26,2.66,2.66,0,0,0,.11.61c.15.41.42.69.72.69h.14s0-.07,0-.1v-.11a.45.45,0,0,1,0-.2.53.53,0,0,1,.35-.35.39.39,0,0,1,.24,0,2.08,2.08,0,0,0,.08-.58,1.79,1.79,0,0,0-.1-.64,1.25,1.25,0,0,0-.2-.4l-.07-.08a.61.61,0,0,0-.29-.2.38.38,0,0,0-.18,0h-.07a.85.85,0,0,0-.22.09.9.9,0,0,1,0,.8Zm9.53-1.43a.7.7,0,0,0-.39.11,1.24,1.24,0,0,1-.25,1.38,1.48,1.48,0,0,1-.46.35c0,1,.5,1.72,1.1,1.72l.19,0a1.12,1.12,0,0,1,0-.55.73.73,0,0,1,.47-.47.65.65,0,0,1,.31,0,2.64,2.64,0,0,0,.12-.77c0-1-.5-1.77-1.11-1.77ZM14.44,56.38h-.22a2.32,2.32,0,0,1-.38-.07h-.07a.17.17,0,0,0-.1,0l-.07,0-.08,0-.14-.05-.05,0-.1,0-.05,0-.09,0L13,56a.24.24,0,0,1-.1-.05h0a1.93,1.93,0,0,0,.24-.29h0l.18.11.07,0,.07,0,.09,0a.07.07,0,0,1,.06,0l.16,0h.06A.61.61,0,0,1,14,56h.43l.23,0,.07,0,.14,0,.09,0,.1,0,.09,0,.09-.06s.06,0,.08-.06l.07-.06.08-.08,0,0,.08-.09s0,0,0,0a.59.59,0,0,0,.08-.11h0a.35.35,0,0,1,.12.07l.06,0,.08,0,.06,0,.13.05h0l.16.05H17l.11,0,.07,0,.12,0a.09.09,0,0,1,.05,0l.13-.07h0l.14-.09,0,0,.08-.08,0,0a.23.23,0,0,1,.09-.08L18,55a.71.71,0,0,1,.07-.09l0,0a1,1,0,0,1,.08-.14s0,0,0-.05l.06-.09s0,0,0-.06l0-.09,0-.06,0-.08a.35.35,0,0,1,0-.06s0-.09.05-.13h0L19,54h0c0,.16-.05.33-.08.49h0a6.23,6.23,0,0,1-3.79,1.88h0a4,4,0,0,1-.69,0ZM14.34,55a.81.81,0,0,1-.87-.77c.47,0,1,0,1.52,0-.07.33-.24.7-.65.74Zm2.42-.46a.66.66,0,0,1-.6-.28c.36,0,.73,0,1.09,0a.59.59,0,0,1-.49.33Zm-6.92-.65c.51.08,1,.14,1.43.18s.67.07,1.13.11c0,0,0,.06,0,.09h0a1.26,1.26,0,0,1-.14.85,1,1,0,0,1-.79.36c-1,.07-1.44-.9-1.65-1.6Zm-8.12-3.7L1.84,50l0,0L2,49.84H2l.13-.11h0a.4.4,0,0,1,.16-.08h0a.49.49,0,0,1,.17-.06h0l.19,0h0l.18,0s0,0,0,0h.57a4.08,4.08,0,0,0-.2.59h0l0,.11h0L2.78,50l0,.06a2.34,2.34,0,0,0,1,.63,17.41,17.41,0,0,0,2.83,1A17.45,17.45,0,0,0,8.49,52l.82.17c.38.07.76.11,1.14.17l1.14.16.59,0,.57,0c.39,0,.77.06,1.16.06.77,0,1.92.07,2.7,0,.47,0,1-.07,1.56-.14a14.19,14.19,0,0,0,2.19-.44,1.5,1.5,0,0,0,.4-.19v-.06l-.31,0c0-.11,0-.29,0-.52h0l.2,0h.05s.05,0,.07,0l.08,0,.06,0,.14.06h0l.1.06s0,0,0,0a.41.41,0,0,1,.1.09.46.46,0,0,1,0,.4c0,.16-.74.7-3.33.94A33,33,0,0,1,11.38,53a38.73,38.73,0,0,1-6.31-1.26C2.5,51,1.79,50.36,1.72,50.16Zm4.65-3.44s0,0,0,0,.18-.21.27-.3,0,0,0,0l.27-.27S7,46,7,46l.21-.2.11-.09.21-.18.14-.09.21-.17.16-.09.21-.14A.83.83,0,0,1,8.45,45l.22-.13.18-.08.24-.11.19-.08.24-.1.2-.07.26-.08a.83.83,0,0,0,.21-.06l.28,0,.21-.05.29,0,.23,0,.32,0,.21,0h.56c.2,0,.4,0,.6,0a3.42,3.42,0,0,1,.57.07l.19,0,.35.07.21.06.3.08.2.07a1.69,1.69,0,0,1,.27.1l.2.08.25.12.17.09.25.13.16.09.22.15.14.1.22.17.13.1.22.21s.06.06.09.08a5.41,5.41,0,0,1,.56.62.5.5,0,0,0,.07.08l.17.24.07.11.14.22a.46.46,0,0,1,.08.13,2.25,2.25,0,0,1,.12.21l.07.14.11.21a.54.54,0,0,0,.07.13,1.45,1.45,0,0,0,.09.22l.06.13c0,.07.06.15.08.22s0,.08.05.13.06.15.08.23l0,.11c0,.08.06.18.09.27s0,0,0,.06c.07.22.11.44.16.65,0,0,0,.06,0,.08a2.23,2.23,0,0,1,0,.23s0,.07,0,.1,0,.13,0,.19a.34.34,0,0,0,0,.1c0,.06,0,.12,0,.18s0,.07,0,.1a.39.39,0,0,1,0,.15.34.34,0,0,1,0,.1.61.61,0,0,1,0,.14.25.25,0,0,1,0,.09s0,.07,0,.12v.08s0,.07,0,.11V52h0l-.77.06c-.72,0-1.43.08-2.16.08h-.23c-.76,0-1.52,0-2.28-.05-.37,0-.76-.06-1.13-.08l-.58,0-.56-.07c-1.19-.11-2.37-.29-3.55-.51l-.95-.19c-.66-.14-1.32-.3-2-.48l-.12,0H5l-.7-.2h0v0s0-.07,0-.12l0-.11,0-.06,0-.1s0-.05,0-.07,0-.08,0-.13l0-.08a1.12,1.12,0,0,1,0-.13l0-.09a.53.53,0,0,0,.06-.14s0-.07,0-.11a1.07,1.07,0,0,0,.07-.15l0-.11A1.18,1.18,0,0,1,5,48.89l0-.1c0-.06.06-.12.1-.18a.27.27,0,0,1,.06-.1c0-.06.06-.12.09-.19l.07-.11L5.44,48a.47.47,0,0,1,.07-.12c0-.07.08-.13.11-.19a1,1,0,0,1,.08-.11l.13-.2a.38.38,0,0,0,.08-.11,1.84,1.84,0,0,1,.17-.22L6.14,47l.23-.28Zm13.05-2.16a.81.81,0,0,1,.12-.14.05.05,0,0,1,0,0l.13-.14h0c.2-.22.42-.43.66-.65h0a7.6,7.6,0,0,1,3.15-1.73c.25-.07.52-.12.77-.17.34.13.69.26,1.06.37a7.35,7.35,0,0,0,2.39,2.24,7.41,7.41,0,0,1-1.41-.47l-.42-.21-.27.39a27.27,27.27,0,0,0-3.41,7.29c-.05-.08-.1-.17-.14-.22a1.36,1.36,0,0,0-.24-.24,0,0,0,0,0,0,0l0,0-.09-.06-.06,0a.6.6,0,0,0-.11-.06l0,0a.3.3,0,0,0-.11-.06h0l-.12-.06h0l-.14,0s0,0,0,0l-.15,0h0a23.81,23.81,0,0,1,2.68-6.21h0s0-.08.07-.12h0A.31.31,0,0,1,23.7,44h0a.18.18,0,0,1,.06-.09h0a.43.43,0,0,1,0-.07h0l.05,0h0l0,0h0v0s0,0,0,0a0,0,0,0,0,0,0h0c-.44-.08-2.37,1.81-3.8,5.91a9.41,9.41,0,0,0-1.68-3.66,8.61,8.61,0,0,1,.66-.93c.08-.11.17-.23.28-.36l0,0ZM16,32.69a6.77,6.77,0,0,0,2.6.65H19l0-.06.1-.31a1.63,1.63,0,0,1,.38-.6,2.15,2.15,0,0,0,.32.13l.18.06.19,0a2.2,2.2,0,0,0,.37,0,1.93,1.93,0,0,0,.72-.1l.1-.1a4.19,4.19,0,0,1,.77-.63A5.54,5.54,0,0,1,23.85,31a7.53,7.53,0,0,1,1.73,1.9l.17.31.35,0A5.9,5.9,0,0,0,30,30.83a4.48,4.48,0,0,1-1.58,3.6,3.85,3.85,0,0,1-3.61,1.14c-1.54-.31-3.34-1.38-3.57-1.94a.83.83,0,0,0,0,.22v.07s0,.11,0,.17,0,0,0,.07a1,1,0,0,0,0,.18s0,0,0,0h0l-.3.16-.08,0-.07,0-.14.06h0l-.21.07s-.05,0-.06,0l-.18,0h-.06a1.41,1.41,0,0,1-.27,0,0,0,0,0,0,0,0l-.27,0h-.77l-.27,0h-.11a2.83,2.83,0,0,1-.36-.07A2.74,2.74,0,0,1,16,32.69Zm1.77-5a.88.88,0,0,1-.05.15.36.36,0,0,1,0,.1,1,1,0,0,1,0,.1.75.75,0,0,1-.07.18c-.06.13-.1.26-.15.38a0,0,0,0,0,0,0l-.11.28c-.09.31-.18.61-.25.91a3.87,3.87,0,0,1-1-1.12,4.23,4.23,0,0,1-.66-2.12l.05,0,.26.14a.27.27,0,0,0,.11,0l.21.1a.33.33,0,0,0,.12.05,1,1,0,0,0,.2.08.24.24,0,0,0,.1.05l.27.09h0l.28.1h.08a1.39,1.39,0,0,1,.19.06h.08l.18,0a.07.07,0,0,1,.06,0l.21,0h0l-.05.2a.43.43,0,0,0,0,.05Zm1.35-1.53a11.8,11.8,0,0,1,1.45-4.7,3.17,3.17,0,0,1,.28-.36h0a5.21,5.21,0,0,0,1-.4h0a1.38,1.38,0,0,1,.4-.1,1.18,1.18,0,0,1,.46,0,2.26,2.26,0,0,1,.94.37,2.76,2.76,0,0,0-.65-.93L23,20a4.45,4.45,0,0,0,.92-1h0a16.14,16.14,0,0,1,5.53-1.12h.11l.11,0c.21-.09,5.21-2.1,7.68,2.35.12.43,1.19,4.17-.41,6.67A6.47,6.47,0,0,1,34.19,26s.29,7,6.29,6.74h.59l0-.09.09-.2a7.78,7.78,0,0,0,.41-1.26c.26-.11.53-.2.78-.3a5.22,5.22,0,0,1,.79-.21s.08,0,.08,0,0,0,0,0,0,0,0,0l0,0a1.33,1.33,0,0,1,.18.34,6.59,6.59,0,0,1,.26.91h.1a2.83,2.83,0,0,0,.19-1,1.28,1.28,0,0,0-.11-.59.4.4,0,0,0-.08-.16s-.07-.08-.09-.12a.75.75,0,0,0-.12-.07.82.82,0,0,0-.37-.13,2,2,0,0,0-.48,0c.23-.27.47-.53.71-.76a7.76,7.76,0,0,1,1-.86,3.63,3.63,0,0,1,.92-.58,4.09,4.09,0,0,1,.2.42,4.6,4.6,0,0,1,.24.68c.14.46.25.94.36,1.42l.1,0a12.2,12.2,0,0,0-.15-1.47A6.31,6.31,0,0,0,46,27.9a2.77,2.77,0,0,0-.29-.75.25.25,0,0,0-.25-.11h0a4.12,4.12,0,0,0-1.33.59,9.28,9.28,0,0,0-1,.67l-.17.14c-.34.28-.67.59-1,.88.08-.61.14-1.24.19-1.86a5.46,5.46,0,0,1,.84-.82l.11-.09a1,1,0,0,1,.13-.09l.15-.12.13-.08.15-.11.13-.08.15-.1.13-.07s.11-.06.15-.1a.47.47,0,0,0,.12-.07.52.52,0,0,0,.15-.07.47.47,0,0,0,.12-.07l.14-.07a.27.27,0,0,0,.12-.06l.13-.05.1-.05.13-.05.08,0,.12-.05.07,0,.1,0h.06l.12,0c.48.54,1.65,3.34,1.26,4.66-.44,1.51-3.69,4.54-4.73,4.85A2.91,2.91,0,0,1,40.17,34l-.61-.49-.22.75a0,0,0,0,1,0,0h0a.43.43,0,0,0,0,.05h0a.53.53,0,0,1,0,.15h0l0,.1h0L39.1,35h0a12.39,12.39,0,0,1-2.82,4.3h0a7.88,7.88,0,0,1-.75.64h0c-.08.07-.18.13-.27.2h0c-.2.12-.36.24-.49.32h0a2,2,0,0,1-.28.16.1.1,0,0,1,0,0l-.23.12-.07,0L33.9,41l-.08,0a1.6,1.6,0,0,1-.3.13h0l-.31.12-.08,0-.25.09-.09,0-.25.07-.09,0c-.11,0-.22.06-.33.09h0l-.36.07h-.1l-.26.05h-.12l-.27,0h-.12c-.11,0-.23,0-.36,0h-1a2.58,2.58,0,0,1-.29,0h-.14l-.42,0L28,41.6l-.2,0-.47-.09-.19,0-.49-.12-.13,0L26,41.14h0a11.42,11.42,0,0,1-7-5.17l.35,0a5.08,5.08,0,0,0,2.65-.72,5.61,5.61,0,0,0,2.75,1.35,5,5,0,0,0,1,.11,4.62,4.62,0,0,0,1.05-.13A5.21,5.21,0,0,0,29,35.37a2.39,2.39,0,0,0,.23-.22,6.54,6.54,0,0,0,1.61-5.46,7.34,7.34,0,0,0-.16-1S28,32.34,26.29,32.1A9,9,0,0,0,24.21,30L24,29.82l-.27.12a.91.91,0,0,0-.22.11l-.07,0-.17.09a.16.16,0,0,1-.08,0s-.1.07-.15.11l-.08.05-.18.13,0,0,0,0a14.59,14.59,0,0,0-1.76,1.71,1.32,1.32,0,0,1-.2-.12,2.59,2.59,0,0,1-.52-.34,2.42,2.42,0,0,1-.4-.38,1.45,1.45,0,0,1-.19-.23h0c.1-.32.19-.66.29-1v0c.05-.14.08-.27.14-.41a7.92,7.92,0,0,1,.78-1.57,7.15,7.15,0,0,1,.49-.73c.18-.24.37-.47.56-.69s.2-.23.31-.33a7.23,7.23,0,0,1,1-.89l-.05-.09c-.14.06-.28.14-.41.21a9.89,9.89,0,0,0-1.16.79l-.35.31a7.3,7.3,0,0,0-1,1,3.65,3.65,0,0,0-.29.37,9.34,9.34,0,0,0-.76,1.2c-.08.14-.15.28-.22.43l-.21.44a5.46,5.46,0,0,0-.28.92l-.06.27.15.19a.41.41,0,0,1,.1.09,2.31,2.31,0,0,0-.37.51,1.17,1.17,0,0,1-.6.1h0s0-.06,0-.11v0a.41.41,0,0,0,0-.11.15.15,0,0,0,0-.07s0-.07,0-.1,0-.06,0-.1a.18.18,0,0,0,0-.1s0-.08,0-.13,0-.06,0-.08l0-.21v0a2.17,2.17,0,0,0,0-.25v0a2.27,2.27,0,0,0,.06-.25s0-.05,0-.07a1.6,1.6,0,0,1,.05-.21.36.36,0,0,1,0-.1c0-.05,0-.12.05-.19a.36.36,0,0,1,0-.1,1.05,1.05,0,0,1,.05-.19.36.36,0,0,0,0-.11,1.27,1.27,0,0,0,.06-.18.49.49,0,0,1,0-.11,1.21,1.21,0,0,1,0-.18l0-.1c0-.07.05-.13.07-.2l0-.08c0-.1.07-.19.11-.27a10.79,10.79,0,0,0,.57-2.5ZM15.69,15.39a6.9,6.9,0,0,0,3.44.52A5.77,5.77,0,0,0,21.92,14a9.44,9.44,0,0,1,2.3-1.85c1.46.4,3.44,3.07,4.44,4.64a12,12,0,0,0-2,.27,1.5,1.5,0,0,0-.29.06h0l-.22,0,0,0-.2,0h-.06l-.2.06h0l-.88.26h0l-.19.06h0s0,0,0,0,0-.18.05-.27a.31.31,0,0,0,0-.1,2.07,2.07,0,0,1,0-.22.28.28,0,0,1,0-.09c0-.11,0-.21,0-.33h0c0-.11,0-.21,0-.33v-.1c0-.1,0-.18,0-.27a.22.22,0,0,0,0-.11c0-.12,0-.24,0-.38,0,.13-.06.26-.1.38l0,.12c0,.08,0,.15-.07.23a.5.5,0,0,1,0,.13,1.8,1.8,0,0,1-.08.21.5.5,0,0,1,0,.13,1.21,1.21,0,0,1-.09.2.49.49,0,0,1,0,.11l-.11.24,0,.05-.14.28a.18.18,0,0,0-.05.07l-.11.19a.22.22,0,0,0-.05.08l-.11.15a.47.47,0,0,0-.06.09l-.1.14-.07.07a1,1,0,0,1-.12.15s0,0-.05.06l-.17.18,0,0a.53.53,0,0,1-.13.13l-.05.06a.65.65,0,0,0-.12.11l-.07,0-.11.1-.05,0-.13.1-.05,0a1,1,0,0,1-.16.12h0a.9.9,0,0,1-.22.14h0l-.21.12h0l-.36.17h0L21,20h0l-.11,0h0l-.09,0h0l-.06,0c-1.84.23-3.19-.11-4-1a5.08,5.08,0,0,1-1-3.71Zm5.2-3.67a3.27,3.27,0,0,1,.83-2h0c.2.62.47,1,.73,1.12,0-.07-1.39-6.75,4-8.74A4.52,4.52,0,0,1,27,2a6.59,6.59,0,0,1,6,.65,6.18,6.18,0,0,1,2.61,5.05,2.33,2.33,0,0,0,.52-1.75c.24-.21,4.75-4,8.36-1.13,4.28,3.45,1,8.73.83,9a.19.19,0,0,0,.1,0h0a.26.26,0,0,0,.12,0h0l.13-.05h0l.15-.09a5.21,5.21,0,0,1,3.66,1.57,4.25,4.25,0,0,1,.69,1,5.08,5.08,0,0,1-.64,5.39,3.22,3.22,0,0,1-2.37,1.31,5,5,0,0,1-2.93-1,10.18,10.18,0,0,0-1.1-4,8.59,8.59,0,0,0-3.5-3.63h0l-.23-.12h0l-.21-.1,0,0L38.92,14l-.06,0a1,1,0,0,0-.16-.06.15.15,0,0,1-.08,0l-.14,0-.08,0a.28.28,0,0,1-.13,0h-.54a13.48,13.48,0,0,1,4.51,4.91,9.23,9.23,0,0,1,1,3.28,4.6,4.6,0,0,0-1,1.19,1.23,1.23,0,0,0,0-.13c0-.06-.48-1-1-2-.46-.86-1-1.77-1.26-2.22a7.8,7.8,0,0,0-3-2.27l-.56-.25c-.11,0-.2-.08-.31-.12L35.42,16a1.92,1.92,0,0,1-.32-.09l-.55-.14c-.15,0-.3-.07-.47-.09a6.18,6.18,0,0,0-.75-.13,9.34,9.34,0,0,0-1.83-.05l.76.82a9.51,9.51,0,0,0-2.45.4,26,26,0,0,0-1.73-2.5,11.11,11.11,0,0,1,5.34-1.28,9.89,9.89,0,0,1,2,.22h0l.07,0h.1c-.65-.9-4.89-1.75-8.22.18a6.21,6.21,0,0,0-3.16-2.23l-.15,0-.15.07a8.13,8.13,0,0,0-1.8,1.23s-.05,0-.07.06-.1.1-.16.15l-.14.13a1.62,1.62,0,0,1-.19.18l-.11.11-.25.25v0h0a.47.47,0,0,1-.06-.15h0c-.06-.17-.12-.34-.17-.53v0l0-.19h0a2.81,2.81,0,0,1,0-.65v0ZM42.23,25.55l.28.07a2.26,2.26,0,0,0-.29.23c0-.1,0-.21,0-.3Zm1.65-1.1a1.71,1.71,0,0,1-1.07.15,2.78,2.78,0,0,1,1-1.74,7.58,7.58,0,0,0,.91.51,2,2,0,0,1-.8,1.08Zm-6.49,3.38.19,0,.12-.15c2.17-3.08.71-7.64.64-7.83l0-.1a7.32,7.32,0,0,0-1.15-1.58,7.05,7.05,0,0,1,1.92,1.32,35.37,35.37,0,0,1,2.1,3.92c0,.76,0,6.09-.79,8.33a5.28,5.28,0,0,1-5-4.12,3.08,3.08,0,0,0,2,.26ZM30,44.91Zm.65-2.08h.19l.33,0,.24,0,.25,0,.27,0a.9.9,0,0,0,.16,0,8.93,8.93,0,0,0,1.52-.43h0l-.16.18,0,0-.12.12s0,0-.05.06l-.13.13a.1.1,0,0,0-.05,0l-.19.17h0a1.3,1.3,0,0,0-.18.15l-.06,0-.14.11a.2.2,0,0,0-.07.06l-.14.1-.07,0L32,43.6h0l-.21.12-.06,0a.65.65,0,0,1-.17.08l-.07,0-.15.07-.07,0-.23.08h0l-.22.07-.07,0-.17,0h-.08l-.16,0h-.63l-.16,0-.05,0a4.66,4.66,0,0,1-2.53-1.7c.53.11,1.08.21,1.65.28l.9.08h1.14ZM20.08,53.93a.59.59,0,0,1,0-.13h0a2,2,0,0,0,.23-.06h0l.23-.07h0l.21-.07h0l.2-.07h0l.09,0a3.25,3.25,0,0,0,.62-.33,36.85,36.85,0,0,0-.77,4.18,11.75,11.75,0,0,1-1.24-.54c.1-1,.22-2,.38-2.87ZM37.91,40.85s0,0,0,0l.09,0a.1.1,0,0,1,0,0l.09,0s0,0,.06,0l.1.06.07,0,.09.06.07.06a.28.28,0,0,1,.09.06.81.81,0,0,1,.08.06.28.28,0,0,1,.11.08.21.21,0,0,1,.08.06l.1.08.1.08a.71.71,0,0,1,.09.07l.11.09.09.07.12.11.08.07.13.1a.27.27,0,0,0,.08.07.8.8,0,0,0,.13.13l.07.07.15.13.06.06a1,1,0,0,1,.15.14l.06.06.16.16,0,0,.18.16,0,0,.19.18,0,0,.19.19s0,0,0,0l.2.2a0,0,0,0,0,0,0l.19.21h0a15.58,15.58,0,0,1,1.68,2.09l-.24.19,0,0-.2.14a.08.08,0,0,0,0,0l-.17.1,0,0a.77.77,0,0,1-.19.11l.12.07h0l.14,0h.2l.17,0h0l.2,0h0l.21-.07s0,0,0,0a1,1,0,0,0,.24-.09h0a1.41,1.41,0,0,0,.24-.13h0c.08-.05.15-.08.23-.14h0c.16-.11.34-.21.51-.33h0l.26-.19h0c.26-.2.5-.41.73-.62h0l.21-.21h0a4.37,4.37,0,0,0,.42.8s0,0,0,0l.11.15a.08.08,0,0,0,0,0l.1.14s0,0,0,0,.17.21.26.3l0,0,.1.09a.11.11,0,0,1,.05,0l.11.07,0,0,.13.07,0,0,.17.06h0l.13,0h.06a.23.23,0,0,0,.12,0h.17s.05,0,.06,0l.19,0a4.35,4.35,0,0,1-1.63-2.54,5.38,5.38,0,0,1-.15-.94A2.41,2.41,0,0,1,47,41.94a.45.45,0,0,1,.12-.06s0,0,0,0l.13-.06h0l.15,0h0l.19,0h.91a1.37,1.37,0,0,0,.05.28,0,0,0,0,0,0,0,1,1,0,0,0,.06.26h0l-.14.12s0,0-.06.07l0,0a.71.71,0,0,0-.07.09l0,0-.07.11h0a.16.16,0,0,1-.06,0h0a.09.09,0,0,1-.06,0h0l0,0h0l-.05,0h0l0,0h0l0,0h0A5.56,5.56,0,0,0,48,43.87c.21,1.21,1.61,2,2.69,2.29a3.62,3.62,0,0,0,.79.11h.09a13.87,13.87,0,0,0,2.77-.42,6.17,6.17,0,0,0,1.18-1,2.66,2.66,0,0,1-.19,1.38c-.15.34-.73.57-1.43.72h0a0,0,0,0,0,0,0,9.59,9.59,0,0,1-2,.18c.12.41.64.64,1.31.7-1.53,1.91-5.2,6.2-7.88,7.4-3.3-1.1-6-5.11-6.35-5.74a22.53,22.53,0,0,1-1-4.4h0c-.1,0-.18.13-.24.31a3,3,0,0,0-.08.75,3.41,3.41,0,0,0,0,.55c0,.2,0,.42.06.64s.06.48.1.74.14.79.25,1.24a30.45,30.45,0,0,0,3.06,7.86c-1.75,1-9.09,4.74-19.14.94.05-.53.16-1.59.41-3a30.26,30.26,0,0,1,4-10.74,13.76,13.76,0,0,0,5.41.78l.76,0,.36,0A10.62,10.62,0,0,0,34.17,45a3,3,0,0,0,1.77-.92h0l-.59.17-.18,0-.43.1-.18,0-.41.07a16.41,16.41,0,0,1-3,.27,7.86,7.86,0,0,0,4.41-3.54l0,0a.51.51,0,0,1,.16-.09s0,0,0,0l.06,0a.1.1,0,0,0,.05,0l.06,0L36,41s0,0,.06,0l.07,0,.06,0,.08,0,.06,0,.1,0h.05l.15,0s0,0,0,0h.72a.5.5,0,0,0,.13,0h.06l.2.06.12,0Zm10.91-4.4v-.08s0,0,0,0a.22.22,0,0,1,0-.08,30.92,30.92,0,0,1,3.58-1.71,4.06,4.06,0,0,1,1.49-.15v-.07a0,0,0,0,1,0,0l0,0h0a1.56,1.56,0,0,0-1.83-.54c-.14-.34-.33-.83-.47-1.2a7.69,7.69,0,0,1,.58-3.62.78.78,0,0,1,.19-.27,3.27,3.27,0,0,1,1.78-.49c.06.31.13,1.1.19,1.75a13.86,13.86,0,0,0,.67,4l0,0a12.14,12.14,0,0,1,1.06,4.21c0,.26.06.49.1.69a7.83,7.83,0,0,1,0,3.47,1.76,1.76,0,0,1-.09.2,10.84,10.84,0,0,1-2.24,2.42,2.93,2.93,0,0,1-.48.11,1.16,1.16,0,0,1-.06-.57,2.4,2.4,0,0,0,1.14-1.24c-1,.87-3.56,1.32-4.27,1.33a2.76,2.76,0,0,1-.32-1.21,1.1,1.1,0,0,1,0-.18,8.92,8.92,0,0,1,3.83-1.67c-.51-.56-2.83.07-4.06.69a3.93,3.93,0,0,1-.15-.84,1.62,1.62,0,0,1,0-.21v0a.31.31,0,0,1,0-.1h0s0-.06,0-.08a14.22,14.22,0,0,1,4.38-1.57c-1.25-.65-3.63.09-4.66.55a2.92,2.92,0,0,1-.1-1.14s0-.05,0-.06v0a.43.43,0,0,0,0,0s0,0,0,0,0,0,0,0v0s0,0,0,0v0l0,0a22.5,22.5,0,0,1,4.49-1.58c-.31-.61-3.72.15-4.82.58,0-.18-.07-.42-.09-.63v0a.45.45,0,0,0,0-.12v-.17ZM57.11,38a12.64,12.64,0,0,0-1.2-4.62,15.78,15.78,0,0,1-.54-3.58c-.15-1.64-.2-2.08-.38-2.34a1.06,1.06,0,0,0-.72-.36,4.32,4.32,0,0,0-2.59.71c-.82.68-1.34,3.38-1.14,4.9v.06l0,0c.14.4.35.91.5,1.29a24.18,24.18,0,0,0-2.89,1.35,1.14,1.14,0,0,0-.41.91,4.22,4.22,0,0,0,.38,2,4,4,0,0,0,.28,2.34,3.42,3.42,0,0,0-2.07.41,2.82,2.82,0,0,0-.72,2.18,2.25,2.25,0,0,0,.08.55,9.85,9.85,0,0,1-1.55,1.67c-1.08-1.62-4.52-5.21-6.08-5.68a3.44,3.44,0,0,0-.75-.15,14.2,14.2,0,0,0,2.79-4.42,3.24,3.24,0,0,0,2.46.41c1.47-.42,4.92-3.76,5.46-5.56.46-1.63-.61-4.26-1.18-5.2-.3-.5-.55-.73-.82-.79a1.69,1.69,0,0,0-.54,0,2.61,2.61,0,0,0,.15-.37,4.76,4.76,0,0,0,1.13.18A.86.86,0,0,0,47,24a4.23,4.23,0,0,0,3.35-1.71,6.11,6.11,0,0,0,.77-6.52,5.3,5.3,0,0,0-4.47-3.1A6.51,6.51,0,0,0,45.16,4c-3.59-2.89-7.87-.21-9.25.79a6.55,6.55,0,0,0-2.28-3,8,8,0,0,0-7.56-.61,6.82,6.82,0,0,0-4.59,7.37,4.37,4.37,0,0,0-1.1,5.53,3.16,3.16,0,0,1-1.46.82,7,7,0,0,1-3.44-.69l-.6-.29-.13.65c0,.14-.66,3.33,1.14,5.27a4.85,4.85,0,0,0,3.64,1.39A13.39,13.39,0,0,0,18.11,26l-.06.42a5.9,5.9,0,0,1-2.69-1.17l-.65-.51-.2.79a5,5,0,0,0,.71,3.73,4.49,4.49,0,0,0,1.64,1.66,12,12,0,0,0-.17,1.19,8.31,8.31,0,0,1-1.74-.9s0,3.89,2.65,4.55A11.27,11.27,0,0,0,22.74,41a10.07,10.07,0,0,0-5,4.07A7.71,7.71,0,0,0,13,43c-5.2-.49-7.82,3.11-9,5.41-.79-.11-2.46-.14-3.22,1.21a1,1,0,0,0,0,1c.67,1.3,4.65,2.41,7.91,3,.22,1.17,1,2.84,2.66,2.84h.19l.17,0a5.55,5.55,0,0,0,3.1,1A6.46,6.46,0,0,0,18.72,56c0,.33-.07.67-.09,1l0,.33.28.17s.52.29,1.16.56a104,104,0,0,0,3.13,12.13,38,38,0,0,0,6.35.54,38.38,38.38,0,0,0,9-1.09,39.27,39.27,0,0,0,2.36-11.2,12.18,12.18,0,0,0,1.14-.68l.39-.28-.23-.41a36.22,36.22,0,0,1-2.08-4.2,11.68,11.68,0,0,0,5,3.39l.17,0,.18-.07c3.43-1.39,8.18-7.37,9.06-8.53a2.39,2.39,0,0,0,1.72-1.1,4,4,0,0,0,.11-2.77,5.33,5.33,0,0,0,.8-1.21,8.14,8.14,0,0,0,0-4c0-.18-.06-.4-.1-.65ZM29.05,20.49a5,5,0,0,1,.56-.66,5.76,5.76,0,0,1,.62-.59,5,5,0,0,1,.71-.46,3.12,3.12,0,0,1,.77-.29,2.85,2.85,0,0,1,.46.17,2.89,2.89,0,0,1,.44.27,3.61,3.61,0,0,1,.74.72l.09-.06a1.26,1.26,0,0,0,0-.34,1.21,1.21,0,0,0-.07-.33,1.6,1.6,0,0,0-.13-.3c-.06-.11-.12-.2-.17-.28a2.48,2.48,0,0,0-.48-.49l-.14-.1a2.6,2.6,0,0,0-.47-.24l-.14-.06-.3.05a2.61,2.61,0,0,0-1.07.36,3,3,0,0,0-.63.48.79.79,0,0,0-.17.2,2.94,2.94,0,0,0-.53.86,3.5,3.5,0,0,0-.14.49,3.21,3.21,0,0,0,0,.54ZM27,37.9a1.18,1.18,0,0,1,.18-.13,2.38,2.38,0,0,0,.59-.64,1.71,1.71,0,0,0,.17-.39.66.66,0,0,0,.06-.2,1.6,1.6,0,0,0,.05-.21l-.08,0c-.23.17-.44.31-.64.44a6.08,6.08,0,0,1-.6.34l-.59.26a1.75,1.75,0,0,1-.32.12,2.09,2.09,0,0,1-.34.08l-.35,0c-.12,0-.24,0-.37,0a6.43,6.43,0,0,1-.72-.09,4.89,4.89,0,0,1-.74-.16c-.24-.07-.49-.15-.72-.24l-.05.07a6.93,6.93,0,0,0,1,.57l.05,0a3.88,3.88,0,0,0,.36.15,4.52,4.52,0,0,0,1.6.32h.25a4.34,4.34,0,0,0,.61-.06A2.9,2.9,0,0,0,27,37.9Zm.38,8.51c.24-.56.14-1.12-.2-1.26a.25.25,0,0,0-.13,0,.83.83,0,0,0-.57.25,1.53,1.53,0,0,1-.13.16,1.79,1.79,0,0,0-.21.36,1.49,1.49,0,0,0-.08,1,.57.57,0,0,0,.28.31.52.52,0,0,0,.42,0,1.37,1.37,0,0,0,.62-.72Zm-2.18,3.25-.13,0a.79.79,0,0,0-.55.3,1.49,1.49,0,0,0-.3.54.9.9,0,0,0-.06.22c-.1.49,0,.93.35,1a.32.32,0,0,0,.27,0,1.2,1.2,0,0,0,.71-.82,1.56,1.56,0,0,0,.08-.42,1,1,0,0,0-.15-.66.62.62,0,0,0-.22-.17Zm-2.34,5.93a1.71,1.71,0,0,0-.19.59,2,2,0,0,0,0,.43,1.29,1.29,0,0,0,0,.19c.09.31.27.52.5.54s.71-.41.78-1a1.23,1.23,0,0,0,0-.51.83.83,0,0,0-.35-.58.25.25,0,0,0-.17-.06.58.58,0,0,0-.51.25h0a1.29,1.29,0,0,0-.09.16ZM31.06,47a1,1,0,0,0-.12-1.21s0,0-.07,0c-.35-.14-.8.19-1,.75a1.42,1.42,0,0,0-.09.91.59.59,0,0,0,.16.28.25.25,0,0,0,.12.07.48.48,0,0,0,.42,0,1.39,1.39,0,0,0,.62-.73ZM29.53,50.5a.62.62,0,0,0-.55.16l-.13.12a1.6,1.6,0,0,0-.3.55,1.66,1.66,0,0,0-.06.21c-.1.49,0,.94.35,1a.36.36,0,0,0,.27,0,1.22,1.22,0,0,0,.71-.83,1.56,1.56,0,0,0,.08-.42.92.92,0,0,0-.15-.66.62.62,0,0,0-.22-.17Zm-1.59,6.79a1,1,0,0,0,.1.35.54.54,0,0,0,.09.15.51.51,0,0,0,.35.23c.36,0,.7-.4.78-1v0a2.06,2.06,0,0,0,0-.43.59.59,0,0,0-.05-.19.81.81,0,0,0-.14-.31A1.27,1.27,0,0,0,29,56a.68.68,0,0,0-.26-.12.66.66,0,0,0-.27.06,1.31,1.31,0,0,0-.51,1h0a2,2,0,0,0,0,.43Z"/><line class="cls-2" x1="38.09" y1="45.65" x2="38.09" y2="45.65"/><path class="cls-1" d="M58,33.83A22.6,22.6,0,0,1,61.3,45.55c0,14.34-13.92,26-31.08,26-14,0-25.87-7.75-29.75-18.39,5.12,8.45,15.62,14.24,27.75,14.24,17.16,0,31.08-11.62,31.08-26A22.31,22.31,0,0,0,58,33.83Z"/><text class="cls-3" transform="translate(67.81 48.59)">JAMESTHEW</text><text class="cls-4" transform="translate(73.15 62.75)">Disco<tspan class="cls-5" x="29.74" y="0">v</tspan><tspan x="36.32" y="0">er </tspan><tspan class="cls-6" x="49.8" y="0">Y</tspan><tspan x="56.82" y="0">our Inner Chef</tspan></text></g></g></svg>